# xmcd
#
# Track frame offsets:
#	150
#	10761
#	23531
#	34398
#	46601
#
# Disc length: 789 seconds
#
# Revision: 1
# Processed by: cddbd v1.5.2PL0 Copyright (c) Steve Scherf et al.
# Submitted via: audiograbber 1.83.01
#
DISCID=2b031305
DTITLE=Jessica Lee Wilkes - Lone Wolf
DYEAR=2015
DGENRE=
TTITLE0=Groove's Too Shallow
TTITLE1=Love Like Crazy
TTITLE2=Love Wolf
TTITLE3=Go Ahead Baby
TTITLE4=Something's Goin' On
EXTD=
EXTT0=
EXTT1=
EXTT2=
EXTT3=
EXTT4=
PLAYORDER=
